<?xml version="1.0" encoding="utf-8"?>
<!-- Generator: Adobe Illustrator 16.0.0, SVG Export Plug-In . SVG Version: 6.00 Build 0)  -->
<!DOCTYPE svg PUBLIC "-//W3C//DTD SVG 1.1//EN" "http://www.w3.org/Graphics/SVG/1.1/DTD/svg11.dtd">
<svg version="1.1" id="Design" xmlns="http://www.w3.org/2000/svg" xmlns:xlink="http://www.w3.org/1999/xlink" x="0px" y="0px"
	 width="426.202px" height="348px" viewBox="0 0 426.202 348" enable-background="new 0 0 426.202 348" xml:space="preserve">
<path fill="#E4F0FC" d="M426.202,348H18.721c0,0,41.834-24.191,47.175-86.284c2.089-44.92,5.887-56.956,16.629-61.536
	c16.978-7.241-11.065-23.319-9.792-35.456c0,0,1.484-14.104,32.645-19.743c31.161-5.638,71.818-10.683,83.984-18.102
	c12.167-7.42,13.947-8.606,17.51-18.698c3.562-10.089,6.527-41.546,50.152-40.062s58.464,5.937,79.236,1.188
	c20.774-4.749,34.722-5.935,62.32-41.844c18.696-23.297,26.14-21.294,27.622-21.738V348z"/>
</svg>
