<?xml version="1.0" encoding="utf-8"?>
<!-- Generator: Adobe Illustrator 16.0.0, SVG Export Plug-In . SVG Version: 6.00 Build 0)  -->
<!DOCTYPE svg PUBLIC "-//W3C//DTD SVG 1.1//EN" "http://www.w3.org/Graphics/SVG/1.1/DTD/svg11.dtd">
<svg version="1.1" id="Design" xmlns="http://www.w3.org/2000/svg" xmlns:xlink="http://www.w3.org/1999/xlink" x="0px" y="0px"
	 width="545.869px" height="348px" viewBox="0 0 545.869 348" enable-background="new 0 0 545.869 348" xml:space="preserve">
<path fill="#E4F0FC" d="M545.868,0c0,0-24.202,40.333-111.796,70.014c-62.739,17.986-62.383,42.331-62.383,44.56
	s-3.713,24.042,37.875,55.096c41.59,31.053,25.994,63.729,11.141,88.238c-14.854,24.507-48.273,69.067-82.436,77.237
	c-34.162,8.169-63.127,8.912-98.031-39.361c-34.905-48.272-26.518-74.244-69.068-75.409c-32.777-0.897-64.223,29.101-74.162,41.247
	c-7.754,9.475-53.55,77.236-97.008,63.868V0H545.868"/>
</svg>
