<?xml version="1.0" encoding="utf-8"?>
<!-- Generator: Adobe Illustrator 16.0.0, SVG Export Plug-In . SVG Version: 6.00 Build 0)  -->
<!DOCTYPE svg PUBLIC "-//W3C//DTD SVG 1.1//EN" "http://www.w3.org/Graphics/SVG/1.1/DTD/svg11.dtd">
<svg version="1.1" id="Design" xmlns="http://www.w3.org/2000/svg" xmlns:xlink="http://www.w3.org/1999/xlink" x="0px" y="0px"
	 width="1919.76px" height="371.057px" viewBox="0 0 1919.76 371.057" enable-background="new 0 0 1919.76 371.057"
	 xml:space="preserve">
<path fill="#f7faff" d="M1919.76,1C1840.929,1,350.797,1,271.966,1c14.79,11.337,29.152,23.288,44.443,33.903
	c65.74,45.637,136.351,82.525,209.319,115.031c108.318,48.254,220.566,85.016,335.398,114.163
	c74.688,18.957,150.086,34.584,226.174,46.629c46.334,7.334,92.838,13.797,139.428,19.27c47.11,5.533,94.365,10.117,141.662,13.717
	c45.496,3.463,91.113,5.458,136.703,7.518c70.769,3.197,141.592,3.742,212.405,2.345c49.636-0.98,99.252-2.939,148.868-4.692
	c17.811-0.629,35.595-1.93,53.392-2.924c0,0,0.001,0,0.001,0.001V1z"/>
</svg>
