<?xml version="1.0" encoding="utf-8"?>
<!-- Generator: Adobe Illustrator 16.0.0, SVG Export Plug-In . SVG Version: 6.00 Build 0)  -->
<!DOCTYPE svg PUBLIC "-//W3C//DTD SVG 1.1//EN" "http://www.w3.org/Graphics/SVG/1.1/DTD/svg11.dtd">
<svg version="1.1" id="Design" xmlns="http://www.w3.org/2000/svg" xmlns:xlink="http://www.w3.org/1999/xlink" x="0px" y="0px"
	 width="37.31px" height="25.158px" viewBox="0 0 37.31 25.158" enable-background="new 0 0 37.31 25.158" xml:space="preserve">
<g>
	<path fill="#599169" d="M10.653,15.528c-0.527,2.883-1.398,4.954-2.094,6.235c-0.271,0.502,0.283,1.06,0.777,0.772
		c5.816-3.392,8.367-8.337,8.684-12.302c0.275-3.421-2.059-6.944-5.596-7.586C8.888,2.008,5.501,4.354,4.858,7.892
		C4.187,11.599,6.8,15.162,10.653,15.528z"/>
	<path fill="#599169" d="M25.165,15.528c-0.525,2.883-1.396,4.954-2.092,6.235c-0.271,0.502,0.283,1.06,0.775,0.772
		c5.818-3.392,8.369-8.337,8.686-12.302c0.273-3.421-2.059-6.944-5.596-7.586c-3.537-0.641-6.926,1.706-7.566,5.243
		C18.7,11.599,21.313,15.162,25.165,15.528z"/>
</g>
</svg>
