<?xml version="1.0" encoding="utf-8"?>
<!-- Generator: Adobe Illustrator 16.0.0, SVG Export Plug-In . SVG Version: 6.00 Build 0)  -->
<!DOCTYPE svg PUBLIC "-//W3C//DTD SVG 1.1//EN" "http://www.w3.org/Graphics/SVG/1.1/DTD/svg11.dtd">
<svg version="1.1" id="Design" xmlns="http://www.w3.org/2000/svg" xmlns:xlink="http://www.w3.org/1999/xlink" x="0px" y="0px"
	 width="37.31px" height="25.158px" viewBox="0 0 37.31 25.158" enable-background="new 0 0 37.31 25.158" xml:space="preserve">
<g>
	<path fill="#599169" d="M26.657,9.629c0.527-2.883,1.398-4.954,2.094-6.235c0.271-0.502-0.283-1.06-0.777-0.772
		c-5.816,3.392-8.367,8.337-8.684,12.302c-0.275,3.421,2.059,6.944,5.596,7.586c3.537,0.641,6.924-1.706,7.566-5.243
		C33.124,13.559,30.511,9.995,26.657,9.629z"/>
	<path fill="#599169" d="M12.146,9.629c0.525-2.883,1.396-4.954,2.092-6.235c0.271-0.502-0.283-1.06-0.775-0.772
		c-5.818,3.392-8.369,8.337-8.686,12.302c-0.273,3.421,2.059,6.944,5.596,7.586c3.537,0.641,6.926-1.706,7.566-5.243
		C18.61,13.559,15.997,9.995,12.146,9.629z"/>
</g>
</svg>
